<?xml version="1.0" encoding="utf-8"?>
<!-- Generator: Adobe Illustrator 24.0.1, SVG Export Plug-In . SVG Version: 6.00 Build 0)  -->
<svg version="1.1" xmlns="http://www.w3.org/2000/svg" xmlns:xlink="http://www.w3.org/1999/xlink" x="0px" y="0px"
	 viewBox="0 0 194.1 247.5" style="enable-background:new 0 0 194.1 247.5;" xml:space="preserve">
<style type="text/css">
	.st0{display:none;}
	.st1{display:inline;fill:#F7F8FC;}
	.st2{display:inline;}
	.st3{fill:#F7F8FC;}
	.st4{fill:none;stroke:#0561FC;stroke-width:10.0172;stroke-linejoin:round;}
	.st5{fill:#C5E1F9;}
	.st6{fill:none;stroke:#0561FC;stroke-width:10.0172;stroke-linejoin:bevel;}
	.st7{fill:#FFFFFF;stroke:#0561FC;stroke-width:10.0172;stroke-linejoin:round;}
	.st8{fill:#9AC7F7;}
	.st9{fill:#FFFFFF;stroke:#0561FC;stroke-width:10.0172;}
	.st10{fill:#FFFFFF;}
	.st11{fill:none;stroke:#0561FC;stroke-width:10.0172;}
	.st12{fill:none;stroke:#FFFFFF;stroke-width:10.0172;}
	.st13{fill:none;stroke:#0561FC;stroke-width:10.0172;stroke-linecap:round;stroke-miterlimit:10;}
	.st14{fill:#9AC7F7;stroke:#0561FC;stroke-width:10.0172;}
	.st15{fill:#0561FC;}
	.st16{fill:none;stroke:#0561FC;stroke-width:10.0172;stroke-linecap:round;stroke-linejoin:round;}
	.st17{fill:none;stroke:#0561FC;stroke-width:10.0172;stroke-dasharray:9.848,9.848;}
	.st18{fill:none;stroke:#0561FC;stroke-width:10.0172;stroke-dasharray:9.7757,9.7757;}
	.st19{fill:none;stroke:#0561FC;stroke-width:10.0172;stroke-dasharray:9.929,9.929;}
	.st20{fill:none;stroke:#0561FC;stroke-width:10.0172;stroke-dasharray:10.2413,10.2413;}
	.st21{fill:#9AC7F7;stroke:#0561FC;stroke-width:10.0172;stroke-linecap:round;stroke-linejoin:round;}
	.st22{fill:none;stroke:#0561FC;stroke-width:10.0172;stroke-dasharray:10.276,10.276;}
	.st23{fill:#FFFFFF;stroke:#0561FC;stroke-width:10.0172;stroke-linecap:round;stroke-linejoin:round;}
</style>
<g id="Layer_2">
</g>
<g id="Layer_3">
</g>
<g id="Layer_4">
	<g>
		<g>
			<path class="st4" d="M166,247.2v-73.3c14.3-14.4,23.2-34.2,23.2-56.1c0-30.5-17.2-57-42.3-70.3c-11-5.8-23.6-9.1-36.9-9.1
				c-8.3,0-16.3,1.3-23.8,3.6c-32.2,10.1-55.5,40.3-55.5,75.8c0,1.2,0,2.4,0.1,3.6l-11.1,19.2L5,165.9h18.4v31.4
				c0,11.8,9.6,21.4,21.4,21.4h33.9v28.5"/>
		</g>
		<g>
			<g>
				<polyline class="st11" points="134.7,198.7 134.7,204.9 117.3,237 99.8,204.9 99.8,198.7 				"/>
				<g>
					<rect x="99.5" y="61.6" class="st8" width="35.5" height="137"/>
					<path class="st15" d="M130,66.6l0,127l-25.4,0l0-127H130 M140,56.6H94.5l0,147l45.5,0L140,56.6L140,56.6z"/>
				</g>
				<line class="st11" x1="117.3" y1="59.9" x2="117.3" y2="194"/>
				<path class="st9" d="M134.7,22.2l0-14.1c0-1.7-1.7-3.1-3.8-3.1l-27.2,0c-2.1,0-3.9,1.4-3.9,3.1v14.1"/>
				<rect x="94.5" y="28.8" class="st5" width="45.5" height="27"/>
			</g>
		</g>
	</g>
</g>
</svg>
